<svg width="1400" height="268" viewBox="0 0 1400 268" fill="none" xmlns="http://www.w3.org/2000/svg">
<path d="M0.00012207 223.103H25.7241V33.3584H26.3366L92.7902 223.103H122.495L188.643 33.3584H189.255V223.103H214.979V4.5906H172.106L107.796 192.499H107.49L42.8734 4.89663L0.00012207 4.5906V223.103Z" fill="black"/>
<path d="M348.023 0C277.588 0 235.327 52.3329 235.327 113.847C235.327 175.361 277.588 228 348.023 228C418.151 228 460.718 175.361 460.718 113.847C460.718 52.3329 418.151 0 348.023 0ZM261.051 113.847C261.051 67.3289 291.062 21.4228 348.023 21.4228C404.983 21.4228 434.688 67.3289 434.688 113.847C434.688 160.365 404.983 206.271 348.023 206.271C291.062 206.271 261.051 160.365 261.051 113.847Z" fill="black"/>
<path d="M545.386 4.5906H480.77V223.103H547.53C616.433 223.103 656.856 173.525 656.856 109.868C656.856 45.906 616.433 4.5906 545.386 4.5906ZM506.494 201.374V26.3195H546.917C593.159 26.3195 631.132 52.0268 631.132 109.868C631.132 170.464 593.159 201.374 548.448 201.374H506.494Z" fill="black"/>
<path d="M838.274 145.369V4.5906H812.243V145.369C812.243 178.421 794.788 205.965 757.121 205.965C719.147 205.965 701.692 178.421 701.692 145.369V4.5906H675.968V145.369C675.968 191.275 701.385 227.694 757.121 227.694C812.55 227.694 838.274 191.275 838.274 145.369Z" fill="black"/>
<path d="M868.83 4.5906V223.103H1002.35V201.374H894.554V4.5906H868.83Z" fill="black"/>
<path d="M1107.4 0C1036.96 0 994.701 52.3329 994.701 113.847C994.701 175.361 1036.96 228 1107.4 228C1177.53 228 1220.09 175.361 1220.09 113.847C1220.09 52.3329 1177.53 0 1107.4 0ZM1020.43 113.847C1020.43 67.3289 1050.44 21.4228 1107.4 21.4228C1164.36 21.4228 1194.06 67.3289 1194.06 113.847C1194.06 160.365 1164.36 206.271 1107.4 206.271C1050.44 206.271 1020.43 160.365 1020.43 113.847Z" fill="black"/>
<path d="M1240.14 223.103H1265.87V131.903H1309.05C1336.3 131.903 1344.88 148.123 1353.15 170.464C1359.27 187.297 1364.78 207.801 1372.44 223.103H1400V220.655C1391.73 205.965 1387.14 194.03 1381.01 173.525C1372.13 144.145 1365.09 128.231 1344.57 123.028C1369.99 116.907 1390.51 97.0148 1390.51 65.7987C1390.51 31.8282 1367.23 4.5906 1317.32 4.5906H1240.14V223.103ZM1265.87 110.174V26.3195H1314.56C1353.45 26.3195 1364.48 45.294 1364.48 65.7987C1364.48 92.7302 1348.86 110.174 1316.7 110.174H1265.87Z" fill="black"/>
<path d="M1391.98 1.07828C1390.09 1.07828 1388.46 1.75357 1387.12 3.10415C1385.78 4.44747 1385.11 6.07034 1385.11 7.97277C1385.11 9.88972 1385.78 11.5235 1387.11 12.8741C1388.45 14.2246 1390.07 14.8999 1391.98 14.8999C1393.9 14.8999 1395.52 14.2246 1396.86 12.8741C1398.2 11.5235 1398.87 9.88972 1398.87 7.97277C1398.87 6.07034 1398.2 4.44747 1396.86 3.10415C1395.51 1.75357 1393.89 1.07828 1391.98 1.07828ZM1400 7.97277C1400 10.1874 1399.22 12.079 1397.66 13.6474C1396.09 15.2158 1394.2 16 1391.98 16C1389.77 16 1387.88 15.2158 1386.32 13.6474C1384.77 12.0862 1384 10.1947 1384 7.97277C1384 5.77263 1384.78 3.89199 1386.34 2.33084C1387.9 0.776946 1389.78 0 1391.98 0C1394.2 0 1396.09 0.776946 1397.66 2.33084C1399.22 3.88473 1400 5.76537 1400 7.97277ZM1394.08 6.23009C1394.08 5.5911 1393.88 5.1627 1393.49 4.94486C1393.1 4.72703 1392.48 4.61811 1391.62 4.61811H1390.3V7.7985H1391.7C1392.35 7.7985 1392.85 7.73315 1393.17 7.60245C1393.78 7.36283 1394.08 6.90538 1394.08 6.23009ZM1391.83 3.56161C1392.92 3.56161 1393.72 3.66689 1394.23 3.87747C1395.14 4.25505 1395.59 4.99569 1395.59 6.09939C1395.59 6.88359 1395.31 7.46086 1394.73 7.83118C1394.43 8.02723 1394 8.16882 1393.46 8.25596C1394.15 8.36487 1394.65 8.65169 1394.97 9.11641C1395.29 9.58112 1395.45 10.0349 1395.45 10.4779V11.1205C1395.45 11.3238 1395.46 11.5416 1395.47 11.774C1395.49 12.0064 1395.51 12.1588 1395.55 12.2315L1395.6 12.3404H1394.15C1394.15 12.3113 1394.14 12.2823 1394.13 12.2532C1394.12 12.2242 1394.12 12.1915 1394.11 12.1552L1394.08 11.872V11.1749C1394.08 10.1584 1393.8 9.48673 1393.25 9.15997C1392.92 8.97118 1392.35 8.87679 1391.53 8.87679H1390.3V12.3404H1388.76V3.56161H1391.83Z" fill="black"/>
<rect y="267" width="1400" height="1" fill="black"/>
</svg>
