<svg width="37" height="45" viewBox="0 0 37 45" fill="none" xmlns="http://www.w3.org/2000/svg">
<g clip-path="url(#clip0_3_18)">
<path d="M24.5801 3.24309C22.5254 -0.137516 17.6617 -0.396204 15.522 3.09577C13.8751 2.65696 12.2948 3.08672 11.0637 4.00473C9.69139 5.02803 8.73174 6.66738 8.52129 8.44354L8.51606 8.52857V18.5915C6.85016 18.0463 5.0264 18.0355 3.49937 18.6302C1.58613 19.3753 0.18078 21.0641 0.190122 23.6562C0.195552 25.2245 0.911474 26.5211 1.70078 27.6313C2.0938 28.1841 2.53164 28.7259 2.92132 29.227C3.32022 29.7399 3.67889 30.2228 3.96297 30.7071C4.72248 32.0015 5.23037 33.3199 5.85688 34.7294C6.47339 36.1165 7.18638 37.5412 8.3274 38.8859C11.7073 42.8712 17.069 44.7221 22.145 44.3608C27.2304 43.9987 32.1415 41.404 34.527 36.3652C35.774 33.7309 36.3893 29.7325 36.65 25.7731C36.8961 22.0363 36.8312 18.2403 36.6395 15.4635L36.5997 14.9221C36.4792 13.3934 35.9088 11.8232 34.9224 10.6261C34.0531 9.57118 32.8485 8.79691 31.3633 8.634C31.108 6.9999 30.3847 5.47231 29.2432 4.4306C28.0479 3.33986 26.4353 2.82382 24.5801 3.24309Z" fill="white"/>
<path d="M10.7343 8.34288C10.7732 8.08962 11.2316 7.06364 11.3943 6.7882C12.204 5.41469 13.4814 5.02464 15.0323 5.34075C15.6978 5.47754 16.0287 6.09683 16.6443 6.22068C17.2229 1.57329 22.6893 1.76925 23.4823 6.22068H23.7559C24.1922 5.64392 25.1239 5.38881 25.8189 5.36848C28.8987 5.27789 29.42 8.81427 29.2093 11.2008C31.4794 10.2026 33.4444 11.2581 34.1432 13.5596C34.7717 15.6245 34.5129 24.3592 34.3891 26.9823C34.036 34.4525 31.2631 41.4107 22.8427 42.0133C16.2044 42.4884 11.1429 40.4827 8.05387 34.447C7.39946 33.1678 6.99832 31.7092 6.33652 30.4429C4.99073 27.8697 1.19001 24.9138 2.83526 21.8506C4.42691 18.8892 9.01145 20.6638 10.7343 22.6381V8.34288ZM19.9219 4.77877C18.8479 4.93775 18.4615 6.15228 18.3266 7.07289C17.8607 10.2525 18.0474 14.6596 18.114 17.9427C18.1325 18.8799 18.7166 20.6805 17.9476 21.4495C17.3209 22.0743 16.5149 21.6491 16.3134 20.8468C16.1434 17.5434 16.3412 14.0181 16.0971 10.7331C16.0306 9.83285 15.8531 8.58135 15.2653 7.87518C13.9287 6.26875 12.7623 7.6478 12.5792 9.26533C11.9729 14.63 13.2558 20.8653 12.7734 26.2447C12.6865 27.219 12.204 27.9233 11.1817 27.2633C10.7491 26.9842 10.1409 25.0653 9.62518 24.3924C8.6066 23.0633 4.4454 20.7045 4.35666 23.4681C4.31415 24.7677 6.94101 27.5905 7.68969 28.9086C8.56223 30.4466 9.03917 32.2342 9.84332 33.7667C12.4665 38.7635 16.9013 40.5844 22.4619 40.161C35.2431 39.1887 31.8491 23.372 32.3519 14.6115C31.6513 11.6445 29.2204 12.6926 29.2093 15.3565L28.8026 21.9597C26.8264 23.8379 26.9336 21.004 26.9836 19.5898C27.0945 16.3436 27.6879 12.9015 27.3366 9.65908C26.8893 5.51452 23.8335 7.64226 23.852 10.5612L23.6247 20.8487C22.9573 22.3645 21.6115 21.7342 21.6171 20.1499C21.6319 16.046 22.2733 11.5465 21.7964 7.44261C21.6966 6.57931 21.0495 4.61425 19.9219 4.78062V4.77877Z" fill="black"/>
</g>
<defs>
<clipPath id="clip0_3_18">
<rect width="37" height="44" fill="white" transform="translate(0 0.5)"/>
</clipPath>
</defs>
</svg>
